<svg width="96" height="36" viewBox="0 0 96 36" fill="none" xmlns="http://www.w3.org/2000/svg">
  <rect width="96" height="36" rx="8" fill="#E6F4FF"/>
  <path d="M20.083 9.5H28.267V11.718L23.222 17.413H28.267V19.75H19.733V17.532L24.778 11.837H20.083V9.5Z" fill="#0068FF"/>
  <path d="M33.891 12.842C36.125 12.842 37.798 14.327 37.798 16.698C37.798 19.07 36.125 20.555 33.891 20.555C31.657 20.555 29.984 19.07 29.984 16.698C29.984 14.327 31.657 12.842 33.891 12.842ZM33.891 18.504C34.837 18.504 35.464 17.745 35.464 16.698C35.464 15.652 34.837 14.893 33.891 14.893C32.945 14.893 32.318 15.652 32.318 16.698C32.318 17.745 32.945 18.504 33.891 18.504Z" fill="#00A1FF"/>
  <path d="M39.068 13.048H41.235L41.44 14.042C41.952 13.333 42.696 12.842 43.779 12.842C45.757 12.842 47.06 14.349 47.06 16.698C47.06 19.047 45.757 20.555 43.779 20.555C42.83 20.555 42.127 20.173 41.645 19.632V23.1H39.068V13.048ZM43.012 18.504C43.959 18.504 44.586 17.745 44.586 16.698C44.586 15.652 43.959 14.893 43.012 14.893C42.066 14.893 41.44 15.652 41.44 16.698C41.44 17.745 42.066 18.504 43.012 18.504Z" fill="#00C2A8"/>
  <path d="M48.29 9.5H50.867V19.75H48.29V9.5Z" fill="#00A1FF"/>
  <path d="M55.968 20.555C53.734 20.555 52.061 19.07 52.061 16.698C52.061 14.327 53.734 12.842 55.968 12.842C58.202 12.842 59.875 14.327 59.875 16.698C59.875 19.07 58.202 20.555 55.968 20.555ZM55.968 18.504C56.915 18.504 57.541 17.745 57.541 16.698C57.541 15.652 56.915 14.893 55.968 14.893C55.022 14.893 54.395 15.652 54.395 16.698C54.395 17.745 55.022 18.504 55.968 18.504Z" fill="#0068FF"/>
  <path d="M61.221 13.048H63.388L63.593 14.042C64.106 13.333 64.849 12.842 65.932 12.842C67.91 12.842 69.214 14.349 69.214 16.698C69.214 19.047 67.91 20.555 65.932 20.555C64.983 20.555 64.28 20.173 63.798 19.632V23.1H61.221V13.048ZM65.166 18.504C66.112 18.504 66.739 17.745 66.739 16.698C66.739 15.652 66.112 14.893 65.166 14.893C64.219 14.893 63.593 15.652 63.593 16.698C63.593 17.745 64.219 18.504 65.166 18.504Z" fill="#FF7A00"/>
  <path d="M71.211 13.048H73.788V19.75H71.211V13.048ZM72.499 9.927C73.34 9.927 73.94 10.48 73.94 11.255C73.94 12.03 73.34 12.582 72.499 12.582C71.659 12.582 71.059 12.03 71.059 11.255C71.059 10.48 71.659 9.927 72.499 9.927Z" fill="#FF4D4F"/>
  <path d="M78.456 20.555C76.267 20.555 74.67 19.113 74.67 16.698C74.67 14.261 76.267 12.842 78.456 12.842C80.329 12.842 81.709 13.931 81.997 15.652H79.572C79.39 15.173 79.001 14.893 78.456 14.893C77.532 14.893 77.004 15.652 77.004 16.698C77.004 17.745 77.532 18.504 78.456 18.504C79.031 18.504 79.42 18.222 79.587 17.728H82.027C81.693 19.507 80.313 20.555 78.456 20.555Z" fill="#FF7A00"/>
  <path d="M83.115 13.048H85.692V13.977C86.171 13.333 86.928 12.842 88.03 12.842C89.712 12.842 90.841 13.912 90.841 16.004V19.75H88.264V16.47C88.264 15.457 87.776 14.936 86.957 14.936C86.107 14.936 85.692 15.531 85.692 16.59V19.75H83.115V13.048Z" fill="#FF4D4F"/>
</svg>